<svg xmlns="http://www.w3.org/2000/svg" viewBox="0 0 16 16">
  <!-- Background/Base of fuel canister -->
  <rect x="3" y="2" width="10" height="12" fill="#d63031"/>
  
  <!-- Canister top -->
  <rect x="4" y="1" width="8" height="1" fill="#636e72"/>
  
  <!-- Canister nozzle -->
  <rect x="6" y="0" width="4" height="1" fill="#636e72"/>
  
  <!-- Canister handle -->
  <rect x="2" y="4" width="1" height="4" fill="#636e72"/>
  
  <!-- Canister highlights -->
  <rect x="5" y="4" width="6" height="1" fill="#ff7675"/>
  <rect x="5" y="6" width="6" height="1" fill="#ff7675"/>
  <rect x="5" y="8" width="6" height="1" fill="#ff7675"/>
  <rect x="5" y="10" width="6" height="1" fill="#ff7675"/>
  
  <!-- Fuel icon -->
  <rect x="5" y="5" width="1" height="5" fill="#ffeaa7"/>
  <rect x="6" y="5" width="1" height="1" fill="#ffeaa7"/>
  <rect x="7" y="5" width="1" height="5" fill="#ffeaa7"/>
  <rect x="8" y="5" width="1" height="1" fill="#ffeaa7"/>
  <rect x="9" y="5" width="1" height="5" fill="#ffeaa7"/>
  
  <!-- Shine effect -->
  <rect x="11" y="3" width="1" height="2" fill="#ffffff" fill-opacity="0.5"/>
  <rect x="10" y="3" width="1" height="1" fill="#ffffff" fill-opacity="0.3"/>
</svg>
