<svg xmlns="http://www.w3.org/2000/svg" viewBox="0 0 32 32">
  <!-- Boat hull - military gray -->
  <path d="M4,20 C4,20 8,24 16,24 C24,24 28,20 28,20 L26,16 L24,14 L8,14 L6,16 Z" fill="#5D5D5D" stroke="#000000" stroke-width="1"/>
  
  <!-- Deck - darker metal -->
  <rect x="8" y="13" width="16" height="2" fill="#3A3A3A" stroke="#000000" stroke-width="0.5"/>
  
  <!-- Bridge/Command Tower -->
  <rect x="16" y="8" width="6" height="5" fill="#4A4A4A" stroke="#000000" stroke-width="0.5"/>
  <rect x="17" y="6" width="4" height="2" fill="#4A4A4A" stroke="#000000" stroke-width="0.5"/>
  
  <!-- Front Gun -->
  <rect x="6" y="12" width="7" height="2" fill="#333333" stroke="#000000" stroke-width="0.5"/>
  <rect x="5" y="11.5" width="1" height="3" fill="#333333" stroke="#000000" stroke-width="0.5"/>
  
  <!-- Rear Gun -->
  <rect x="24" y="11" width="4" height="3" fill="#333333" stroke="#000000" stroke-width="0.5"/>
  
  <!-- Radar/Antenna -->
  <line x1="19" y1="6" x2="19" y2="3" stroke="#333333" stroke-width="0.5"/>
  <circle cx="19" cy="2.5" r="0.5" fill="#333333" stroke="#000000" stroke-width="0.5"/>
  
  <!-- Water/Waves -->
  <path d="M1,20 C5,22 8,23 16,23 C24,23 27,22 31,20" fill="none" stroke="#ADD8E6" stroke-width="1"/>
  <path d="M2,22 C6,24 9,25 16,25 C23,25 26,24 30,22" fill="none" stroke="#ADD8E6" stroke-width="0.75"/>
  
  <!-- Exhaust/Smoke Stack -->
  <rect x="13" y="9" width="2" height="4" fill="#333333" stroke="#000000" stroke-width="0.5"/>
  <path d="M13,9 C13,8 15,8 15,9" fill="#333333" stroke="#000000" stroke-width="0.5"/>
</svg>
