<svg xmlns="http://www.w3.org/2000/svg" viewBox="0 0 32 32">
  <!-- Main Helicopter Body -->
  <rect x="10" y="14" width="16" height="6" fill="#555555"/>
  <rect x="26" y="15" width="4" height="4" fill="#555555"/>
  <rect x="6" y="15" width="4" height="4" fill="#555555"/>
  
  <!-- Cockpit -->
  <rect x="22" y="12" width="4" height="2" fill="#88CCFF"/>
  
  <!-- Tail -->
  <rect x="4" y="16" width="6" height="2" fill="#555555"/>
  <rect x="2" y="15" width="2" height="4" fill="#555555"/>
  
  <!-- Skids -->
  <rect x="12" y="20" width="2" height="2" fill="#555555"/>
  <rect x="22" y="20" width="2" height="2" fill="#555555"/>
  <rect x="10" y="22" width="6" height="1" fill="#555555"/>
  <rect x="20" y="22" width="6" height="1" fill="#555555"/>
  
  <!-- Main Rotor -->
  <rect x="16" y="12" width="2" height="2" fill="#555555"/>
  <rect x="4" y="11" width="26" height="1" fill="#999999"/>
  
  <!-- Tail Rotor -->
  <rect x="1" y="14" width="1" height="6" fill="#999999"/>
  
  <!-- Highlights -->
  <rect x="12" y="15" width="2" height="2" fill="#777777"/>
  <rect x="17" y="15" width="2" height="2" fill="#777777"/>
  
  <!-- Coordinate Display (96,0) -->
  <text x="1" y="31" font-family="monospace" font-size="3" fill="#777777">(96,0)</text>
</svg>
